{"title":"Ghost.Town[2008].Dvdrip.Xvid.[Engsub].AC3[5.1]-RoCK&amp;BlueLadyRG","uid":4606480,"size":1781928488,"categoryP":"video","categoryS":"movies","magnet":"?xt=urn:btih:2a9bf973c851ded7f5b1c34a73c4aaed355f2c86&amp;dn=Ghost.Town%5B2008%5D.Dvdrip.Xvid.%5BEngsub%5D.AC3%5B5.1%5D-RoCK%26BlueLadyRG&amp;tr=udp%3A%2F%2Ftracker.openbittorrent.com%3A80&amp;tr=udp%3A%2F%2Fopen.demonii.com%3A1337&amp;tr=udp%3A%2F%2Ftracker.coppersurfer.tk%3A6969&amp;tr=udp%3A%2F%2Fexodus.desync.com%3A6969","seeders":0,"leechers":1,"uploader":"RoCK_BlueLadyRG","files":3,"time":1230487263,"description":"\n                                RoCK &amp; BlueLady RG\n\n*******************************************************************************\n                       Proudly presents: Ghost Town (2008)\n*******************************************************************************\n\n-------------------------------------------------------------------------------\n                              General Information\n-------------------------------------------------------------------------------\nType                             : Movie\nBurn Tested                      : Yes\nSubtitles                        : English\n                                 : Dutch/Spanish can be found on http://www.genesis-sp.com\n\nFormat                           : AVI\nFormat/Info                      : Audio Video Interleave\nFile size                        : 1.66 GiB\nDuration                         : 1h 42mn\nOverall bit rate                 : 2 323 Kbps\nWriting application              : VirtualDubMod 1.5.10.2 (build 2540/release)\nWriting library                  : VirtualDubMod build 2540/release\n\nAudio Enlish\nFormat                           : AC-3\nFormat/Info                      : Audio Coding 3\nCodec ID                         : 2000\nDuration                         : 1h 42mn\nBit rate mode                    : Constant\nBit rate                         : 448 Kbps\nChannel(s)                       : 6 channels\nChannel positions                : Front: L C R, Surround: L R, LFE\nSampling rate                    : 48.0 KHz\nStream size                      : 328 MiB (19%)\nAlignment                        : Split accross interleaves\nInterleave, duration             : 33 ms (1.00 video frame)\nInterleave, preload duration     : 500 ms\n\nAudio Director's commend\nFormat                           : AC-3\nFormat/Info                      : Audio Coding 3\nCodec ID                         : 2000\nDuration                         : 1h 42mn\nBit rate mode                    : Constant\nBit rate                         : 192 Kbps\nChannel(s)                       : 2 channels\nChannel positions                : L R\nSampling rate                    : 48.0 KHz\nStream size                      : 140 MiB (8%)\nAlignment                        : Split accross interleaves\nInterleave, duration             : 33 ms (1.00 video frame)\nInterleave, preload duration     : 500 ms\n\nVideo\nFormat                           : MPEG-4 Visual\nFormat settings, BVOP            : No\nFormat settings, QPel            : No\nFormat settings, GMC             : No warppoints\nFormat settings, Matrix          : Default\nCodec ID                         : XVID\nCodec ID/Hint                    : XviD\nDuration                         : 1h 42mn\nBit rate                         : 1 665 Kbps\nWidth                            : 704 pixels\nHeight                           : 384 pixels\nDisplay aspect ratio             : 16/9\nFrame rate                       : 29.970 fps\nResolution                       : 24 bits\nColorimetry                      : 4:2:0\nScan type                        : Progressive\nBits/(Pixel*Frame)               : 0.205\nStream size                      : 1.19 GiB (72%)\nWriting library                  : XviD 1.0.3 (UTC 2004-12-20)\n\n\nSource                           : Retail-DVD\nOriginal Format                  : NTSC\nGenre                            : Comedy | Fantasy | Romance \nIMDb Rating                      : 7.4 (6,052 Votes)\nMovie Information                : http://www.imdb.com/title/tt0995039/\n\n-------------------------------------------------------------------------------\n                               Post Information\n-------------------------------------------------------------------------------\nPosted by............: RoCK (http://www.genesis-sp.com)\nPosted on............: 28-12-2008\n\n-------------------------------------------------------------------------------\n                                 Release Notes\n-------------------------------------------------------------------------------\nBertram Pincus is a man whose people skills leave much to be desired. When Pincus \ndies unexpectedly, but is miraculously revived after seven minutes, he wakes up \nto discover that he now has the annoying ability to see ghosts. Even worse, they \nall want something from him, particularly Frank Herlihy who pesters him into \nbreaking up the impending marriage of his widow Gwen. That puts Pincus squarely \nin the middle of a triangle with spirited result.\n\nDirector: David Koepp\n\nWriters : David Koepp\n          John Kamps\n   \nCast    :\n\nGreg Kinnear     ...     Frank Herlihy\nJordan Carlos    ...     Young Husband\nDequina Moore    ...     Young Wife\nJoseph Badalucco Jr.    ...     Accident Bystander #1 (as Joe Badalucco)\nBrian Hutchison    ...     Accident Bystander #2\nTyree Michael Simpson    ...     Sneezy Cop (as Tyre Simpson)\nJulia K. Murney    ...     Sneezy Lady\nRicky Gervais    ...     Bertram Pincus D.D.S.\nClaire Lautier    ...     Upper East Side Lady\nAasif Mandvi    ...     Dr. Prashar\nBridget Moloney    ...     Receptionist\nRaymond J. Lee    ...     Greenpeace Guy (as Raymond Lee)\nJoey Mazzarino    ...     Food Delivery Guy\nBrad Oscar    ...     Day Doorman\nKathleen Landis    ...     Resident\n\nEnjoy this movie!\n\n\n\n------------------------------------------------------------------------------------------\n                              Announcement\n------------------------------------------------------------------------------------------\nI decided to drop the 1cd versions and replace them with movies in MKV format. This means\nsmaller filesizes with higher quality. The movies you can watch in VLC or download the x264\ncodec!\n\nIf you want to decode it and burn it on dvd use convertxtodvd 3\n\n\nRoCK.\n\n\n\n\n\n\n------------------------------------------------------------------------------------------\nYou can find us both at: http://www.genesis-sp.com/\n------------------------------------------------------------------------------------------\n","torrent":{"xt":"urn:btih:2a9bf973c851ded7f5b1c34a73c4aaed355f2c86","amp;dn":"Ghost.Town%5B2008%5D.Dvdrip.Xvid.%5BEngsub%5D.AC3%5B5.1%5D-RoCK%26BlueLadyRG","amp;tr":["udp%3A%2F%2Ftracker.openbittorrent.com%3A80","udp%3A%2F%2Fopen.demonii.com%3A1337","udp%3A%2F%2Ftracker.coppersurfer.tk%3A6969","udp%3A%2F%2Fexodus.desync.com%3A6969"],"infoHash":"2a9bf973c851ded7f5b1c34a73c4aaed355f2c86","infoHashBuffer":{"type":"Buffer","data":[42,155,249,115,200,81,222,215,245,177,195,74,115,196,170,237,53,95,44,134]},"announce":[],"urlList":[]}}